<?xml version="1.0" encoding="iso-8859-1"?>
<!-- Generator: Adobe Illustrator 18.1.1, SVG Export Plug-In . SVG Version: 6.00 Build 0)  -->
<svg xmlns="http://www.w3.org/2000/svg" xmlns:xlink="http://www.w3.org/1999/xlink" version="1.1" id="Capa_1" x="0px" y="0px" viewBox="0 0 41.997 41.997" style="enable-background:new 0 0 41.997 41.997;" xml:space="preserve" width="512px" height="512px">
<g>
	<g id="b4_grapes">
		<path d="M38.123,15.943c0-1.893-1.536-3.428-3.43-3.428c-0.175,0-0.348,0.026-0.519,0.053c0.312-0.518,0.503-1.118,0.503-1.767    c0-1.893-1.534-3.428-3.428-3.428c-1.856,0-3.358,1.478-3.415,3.321c-0.061-1.843-1.562-3.321-3.42-3.321    c-1.894,0-3.428,1.535-3.428,3.428c0-1.893-1.534-3.428-3.428-3.428c-1.893,0-3.428,1.535-3.428,3.428    c0-1.893-1.535-3.428-3.429-3.428c-1.892,0-3.427,1.535-3.427,3.428c0,0.647,0.189,1.245,0.5,1.761    c-0.156-0.02-0.311-0.046-0.473-0.046c-1.892-0.001-3.426,1.534-3.426,3.427c0,1.892,1.534,3.428,3.429,3.428    c0.268,0,0.525-0.038,0.772-0.097c-0.479,0.591-0.778,1.333-0.778,2.154c0,1.892,1.535,3.427,3.428,3.427    c0.348,0,0.676-0.068,0.994-0.164c-0.604,0.619-0.979,1.461-0.979,2.393c0,1.893,1.535,3.428,3.428,3.428    c0.455,0,0.885-0.092,1.281-0.252c-0.775,0.629-1.281,1.576-1.281,2.651c0,1.894,1.536,3.429,3.43,3.429    c0.338,0,0.66-0.065,0.973-0.157c-0.602,0.617-0.973,1.456-0.973,2.386c0,1.893,1.533,3.428,3.426,3.428    c1.895,0,3.43-1.535,3.43-3.428c0-0.93-0.374-1.769-0.973-2.386c0.311,0.092,0.632,0.157,0.973,0.157    c1.894,0,3.428-1.535,3.428-3.429c0-1.075-0.506-2.022-1.281-2.651c0.396,0.16,0.827,0.252,1.281,0.252    c1.895,0,3.428-1.535,3.428-3.428c0-0.922-0.368-1.754-0.959-2.369c0.295,0.082,0.6,0.141,0.921,0.141    c1.894,0,3.428-1.535,3.428-3.427c0-0.821-0.3-1.562-0.778-2.154c0.247,0.059,0.506,0.097,0.772,0.097    C36.587,19.371,38.123,17.835,38.123,15.943z M29.18,11.426c0.01,0.01,0.803,0.83,1.852,0.82c0.615-0.016,1.289-0.169,1.831-0.921    l0.335,0.178c-0.676,0.938-1.224,1.645-2.066,1.664c-0.019,0-0.037,0-0.052,0c-1.378,0-2.152-1.502-2.194-1.556L29.18,11.426z     M28.166,16.792c0.008,0.01,0.801,0.829,1.851,0.82c0.616-0.015,1.29-0.169,1.831-0.921l0.334,0.177    c-0.674,0.939-1.223,1.645-2.066,1.665c-0.018,0-0.035,0.001-0.053,0.001c-1.377,0-2.148-1.502-2.191-1.556L28.166,16.792z     M22.482,11.826c0.008,0.011,0.8,0.83,1.85,0.821c0.616-0.016,1.289-0.169,1.831-0.921l0.333,0.178    c-0.674,0.937-1.222,1.645-2.065,1.665c-0.019,0-0.035,0-0.052,0c-1.377,0-2.15-1.502-2.193-1.556L22.482,11.826z M22.482,16.792    c0.008,0.01,0.8,0.829,1.85,0.82c0.616-0.015,1.289-0.169,1.831-0.921l0.333,0.177c-0.674,0.939-1.222,1.645-2.065,1.665    c-0.019,0-0.035,0.001-0.052,0.001c-1.377,0-2.15-1.502-2.193-1.556L22.482,16.792z M21.48,21.991    c0.01,0.011,0.801,0.83,1.85,0.82c0.619-0.015,1.291-0.169,1.834-0.921l0.333,0.178c-0.675,0.938-1.224,1.646-2.066,1.664    c-0.019,0-0.035,0-0.052,0c-1.377,0-2.151-1.502-2.193-1.556L21.48,21.991z M21.176,28.125c0.616-0.015,1.289-0.17,1.832-0.921    l0.333,0.179c-0.675,0.938-1.224,1.645-2.066,1.663c-0.017,0.001-0.034,0.001-0.052,0.001c-1.378,0-2.15-1.504-2.193-1.557    l0.296-0.186C19.334,27.315,20.125,28.135,21.176,28.125z M15.343,11.611l0.296-0.185c0.01,0.01,0.803,0.83,1.852,0.82    c0.615-0.016,1.288-0.169,1.832-0.921l0.333,0.178c-0.675,0.938-1.224,1.645-2.065,1.664c-0.02,0-0.035,0-0.053,0    C16.16,13.167,15.385,11.665,15.343,11.611z M20.205,16.868c-0.675,0.939-1.225,1.645-2.065,1.665    c-0.018,0-0.036,0.001-0.053,0.001c-1.376,0-2.151-1.502-2.193-1.556l0.296-0.186c0.009,0.01,0.801,0.829,1.85,0.82    c0.617-0.015,1.289-0.169,1.832-0.921L20.205,16.868z M15.334,21.991c0.009,0.011,0.803,0.83,1.852,0.82    c0.615-0.015,1.289-0.169,1.83-0.921l0.336,0.178c-0.677,0.938-1.223,1.646-2.065,1.664c-0.02,0-0.036,0-0.053,0    c-1.378,0-2.151-1.502-2.194-1.556L15.334,21.991z M14.123,16.691l0.334,0.177c-0.676,0.939-1.223,1.645-2.067,1.665    c-0.019,0-0.035,0.001-0.052,0.001c-1.377,0-2.148-1.502-2.193-1.556l0.295-0.186c0.01,0.01,0.803,0.829,1.852,0.82    C12.906,17.597,13.58,17.443,14.123,16.691z M8.688,11.426c0.009,0.01,0.802,0.83,1.851,0.82c0.615-0.016,1.288-0.169,1.831-0.921    l0.333,0.178c-0.674,0.938-1.222,1.645-2.066,1.664c-0.016,0-0.033,0-0.051,0c-1.377,0-2.15-1.502-2.192-1.556L8.688,11.426z     M7.123,18.18c-0.016,0.001-0.034,0.001-0.051,0.001c-1.377,0-2.152-1.502-2.193-1.557l0.295-0.185    c0.01,0.012,0.802,0.83,1.851,0.821c0.616-0.016,1.29-0.17,1.83-0.922l0.335,0.179C8.516,17.455,7.966,18.162,7.123,18.18z     M11.017,23.482c-0.018,0-0.034,0.002-0.05,0.002c-1.379,0-2.152-1.504-2.195-1.559l0.297-0.184    c0.008,0.011,0.801,0.83,1.85,0.819c0.617-0.014,1.289-0.168,1.832-0.92l0.334,0.178C12.409,22.756,11.861,23.465,11.017,23.482z     M14.951,29.046c-0.02,0.001-0.035,0.001-0.053,0.001c-1.377,0-2.152-1.504-2.195-1.557L13,27.304    c0.01,0.011,0.801,0.83,1.85,0.82c0.617-0.015,1.291-0.17,1.834-0.921l0.332,0.179C16.342,28.32,15.792,29.027,14.951,29.046z     M18.582,34.789c-1.377,0-2.15-1.502-2.193-1.557l0.297-0.186c0.01,0.01,0.801,0.83,1.85,0.82c0.617-0.016,1.29-0.17,1.832-0.922    l0.334,0.179c-0.674,0.938-1.223,1.645-2.067,1.665C18.617,34.789,18.6,34.789,18.582,34.789z M21.274,40.616    c-0.017,0.001-0.034,0.001-0.052,0.001c-1.378,0-2.15-1.503-2.193-1.557l0.296-0.186c0.009,0.011,0.8,0.829,1.851,0.82    c0.616-0.016,1.289-0.169,1.832-0.921l0.333,0.179C22.666,39.891,22.117,40.598,21.274,40.616z M23.791,34.789    c-0.018,0-0.035,0-0.052,0c-1.378,0-2.151-1.502-2.196-1.557l0.299-0.186c0.01,0.01,0.8,0.83,1.849,0.82    c0.617-0.016,1.29-0.17,1.833-0.922l0.333,0.179C25.182,34.062,24.634,34.769,23.791,34.789z M27.959,29.046    c-0.017,0.001-0.034,0.001-0.052,0.001c-1.378,0-2.149-1.504-2.193-1.557l0.297-0.186c0.007,0.011,0.802,0.83,1.85,0.82    c0.615-0.015,1.287-0.17,1.831-0.921l0.333,0.179C29.35,28.32,28.803,29.027,27.959,29.046z M31.131,23.732    c-0.019,0-0.037,0-0.052,0c-1.378,0-2.152-1.502-2.194-1.556l0.295-0.186c0.01,0.011,0.803,0.83,1.852,0.82    c0.615-0.015,1.289-0.169,1.831-0.921l0.335,0.178C32.521,23.006,31.974,23.714,31.131,23.732z M32.883,16.625l0.298-0.186    c0.007,0.012,0.8,0.83,1.849,0.821c0.617-0.016,1.29-0.17,1.832-0.922l0.334,0.179c-0.674,0.938-1.223,1.645-2.065,1.663    c-0.019,0.001-0.036,0.001-0.053,0.001C33.7,18.182,32.927,16.679,32.883,16.625z" fill="#ffc107"/>
		<path d="M20.408,11.945c0,0,2.225-7.95-1.967-10.407" fill="#ffc107"/>
		<path d="M20.997,5.372c-0.047-1.301,0.372-2.27,0.927-3.084c0.568-0.81,1.341-1.423,2.248-1.825    c0.906-0.397,1.971-0.584,3.056-0.379c1.065,0.202,2.188,0.782,2.743,1.975c-1.049,0.762-1.615,1.306-2.186,1.756    c-0.554,0.451-1.078,0.777-1.688,1.043c-0.61,0.261-1.283,0.465-2.099,0.566C23.176,5.526,22.268,5.559,20.997,5.372z" fill="#ffc107"/>
		<path d="M20.764,6.22c-1.148,0.27-2.023,0.312-2.842,0.292c-0.806-0.029-1.523-0.136-2.188-0.306    c-0.668-0.164-1.275-0.398-1.924-0.692c-0.662-0.3-1.335-0.66-2.436-1.109c0.407-1.135,1.396-1.804,2.39-2.126    c1.006-0.317,2.053-0.303,2.987-0.06c0.94,0.24,1.784,0.705,2.489,1.351C19.932,4.23,20.524,5.048,20.764,6.22z" fill="#ffc107"/>
	</g>
	<g id="Capa_1_55_">
	</g>
</g>
<g>
</g>
<g>
</g>
<g>
</g>
<g>
</g>
<g>
</g>
<g>
</g>
<g>
</g>
<g>
</g>
<g>
</g>
<g>
</g>
<g>
</g>
<g>
</g>
<g>
</g>
<g>
</g>
<g>
</g>
</svg>
