<svg xmlns="http://www.w3.org/2000/svg" xmlns:xlink="http://www.w3.org/1999/xlink" version="1.1" x="0px" y="0px" viewBox="0 0 255.1 318.875" enable-background="new 0 0 255.1 255.1" xml:space="preserve"><path fill="#000000" d="M165,243.4V129.1c-0.2-36-7.1-39.5-12.4-45c-5.3-5.5-8.7-10.4-8.6-19.9c0.2-9.5,0-47,0-47  c-4.3-1.1-8-1.5-11.2-1.4c-3.2,0-6.9,0.3-11.2,1.4c0,0-0.2,37.5,0,47s-3.3,14.4-8.6,19.9c-5.3,5.5-12.2,9-12.4,45v114.3  c0,0-3.6,6.7,31,6.4l0,0l2.3,0C168.5,250.1,165,243.4,165,243.4z M160.5,195.1c-1.5,1.1-35.9,5.4-54.6,0.6l0.3-74  c7.9-2.3,42.1-4.4,54.3,0C160.5,121.6,160.5,188.3,160.5,195.1z"/><text x="0" y="270.1" fill="#000000" font-size="5px" font-weight="bold" font-family="'Helvetica Neue', Helvetica, Arial-Unicode, Arial, Sans-serif">Created by Maxime Cmblt</text><text x="0" y="275.1" fill="#000000" font-size="5px" font-weight="bold" font-family="'Helvetica Neue', Helvetica, Arial-Unicode, Arial, Sans-serif">from the Noun Project</text></svg>