<?xml version='1.0' encoding='iso-8859-1'?>
<svg version="1.1" xmlns="http://www.w3.org/2000/svg" viewBox="0 0 376.213 376.213" xmlns:xlink="http://www.w3.org/1999/xlink" enable-background="new 0 0 376.213 376.213">
  <g>
    <g>
      <g>
        <path d="m265.059,83.092v-74.542c0-4.72-3.831-8.55-8.55-8.55h-34.201c-4.72,0-8.55,3.831-8.55,8.55v74.541c-17.75,9.559-34.201,29.841-34.201,53.713v230.858c0,4.72 3.831,8.55 8.55,8.55h102.603c4.72,0 8.55-3.831 8.55-8.55v-230.857c0-23.873-16.451-44.154-34.201-53.713zm17.101,276.02h-85.503v-222.307c0-18.503 14.895-34.629 28.9-40.409 3.215-1.317 5.301-4.446 5.301-7.9v-71.395h17.101v71.395c0,3.471 2.086,6.584 5.301,7.9 14.005,5.78 28.9,21.906 28.9,40.409v222.307z"/>
        <path d="m159.566,360.019l-31.311-15.596v-64.897c17.614-4.925 34.201-20.367 34.201-41.007v-41.862c0-4.72-3.831-8.55-8.55-8.55h-68.403c-4.72,0-8.55,3.831-8.55,8.55v41.845c0,18.759 14.672,35.877 33.996,41.127l.188,69.377-26.951,10.705c-3.813,1.522-6.019,5.523-5.25,9.559 0.787,4.036 4.309,6.943 8.413,6.943h68.402c3.967,0 7.422-2.719 8.328-6.601 0.907-3.848-0.957-7.832-4.513-9.593zm-65.513-121.517v-33.295h51.302v33.295c0,13.236-13.561,23.89-25.959,25.411-12.175-1.658-25.343-12.244-25.343-25.411z"/>
      </g>
    </g>
  </g>
</svg>
