<svg xmlns="http://www.w3.org/2000/svg" xmlns:xlink="http://www.w3.org/1999/xlink" version="1.1" x="0px" y="0px" viewBox="0 0 100 125" enable-background="new 0 0 100 100" xml:space="preserve"><g><path d="M46.899,56.175c2.156-1.137,2.352-3.165,1.617-4.834c-0.734-1.671-12.099-9.865-13.893-11.829   c-1.794-1.963-1.533-6.289-1.998-8.26c-0.408-1.73-2.167-13.034-12.979-16.943C12.045,21.706,7.321,32.045,7.321,43.49   c0,22.486,18.228,40.714,40.714,40.714c0.285,0,0.568-0.005,0.851-0.012c-0.683-2.879-3.557-7.813-3.984-9.277   c-0.481-1.645,1.23-1.48,1.609-3.427c0.38-1.946-0.07-1.924-1.974-2.749c-1.903-0.822-2.166-0.08-2.214-0.917   c-0.047-0.835,2.023-1.083,3.083-2.132c1.061-1.05-1.525-4.754-2.118-5.897C42.695,58.647,44.743,57.311,46.899,56.175z    M26.882,40.719l-1.094,0.542c0.356,0.78,0.709,2.109,0.095,3.677l0.348,0.041c0.472,0.055,0.81,0.482,0.755,0.955   c-0.023,0.194-0.109,0.365-0.233,0.496c-0.181,0.188-0.443,0.291-0.722,0.259l-9.318-1.087c-0.379-0.043-0.683-0.332-0.748-0.707   c-0.065-0.376,0.124-0.75,0.466-0.919l9.687-4.798c0.425-0.211,0.942-0.037,1.152,0.389C27.482,39.992,27.309,40.509,26.882,40.719   z"/><path d="M61.816,45.328l1.284,0.442l0.323-5.314c-1.324-0.419-2.747,0.29-3.201,1.612C59.763,43.407,60.476,44.868,61.816,45.328z"/><path d="M86.939,32.965L87.907,31H68.593c0.15,2,1.141,3.805,3.64,5.7l1.13,0.857C82.078,44.166,86.939,32.965,86.939,32.965z"/><path d="M92.85,25.599l-14.48-10.98c0,0-22.521,12.723-7.867,23.835l-0.972,1.229c-0.036-1.386-1.169-2.499-2.562-2.499   c-1.418,0-2.567,1.149-2.567,2.567l-0.688,11.333c0,0-0.981,1.84-1.831,3.85c-0.616-0.94-0.849-1.529-0.849-1.529l1.771-2.264   l0.036-1.09L63.084,46h-4.051c-1.417,0-2.567,1.082-2.567,2.5c0,1.417,1.15,2.5,2.567,2.5h1.396l-0.862,1.192   c0,0-3.43-0.298-7.827-3.632l-0.482,0.662l9.915,7.534c-0.214,0.63-0.381,1.23-0.463,1.737c-0.221,1.396-0.022,6.079,0.436,10.035   c0.329,7.656-0.235,12.284,0.299,13.456c0.432,0.944,11.627-0.002,12.602-0.002c0.355,0,0.432-6.14,0.777-6.298   c0,0,10.743-16.104,9.801-18.356c-1.4-3.345-0.155-4.725-1.634-6.145c-1.478-1.42-6.177-6.314-8.089-7.156   c-0.699-0.309-2.289-0.867-4.024-1.451c0,0,0.313,2.615,0.271,4.384c-0.041,1.77-0.104,4.523-0.146,5.328   c-0.02,0.392-0.618,1.719-1.229,2.977l0.207-8.304l-0.28-4.528l2.267-2.869C86.695,50.732,92.85,25.599,92.85,25.599z M78.35,16.22   l12.865,9.755c0,0-5.622,22.164-18.481,12.414l-1.254-0.951C58.819,27.837,78.35,16.22,78.35,16.22z"/></g><text x="0" y="115" fill="#000000" font-size="5px" font-weight="bold" font-family="'Helvetica Neue', Helvetica, Arial-Unicode, Arial, Sans-serif">Created by Siwat Vatatiyaporn</text><text x="0" y="120" fill="#000000" font-size="5px" font-weight="bold" font-family="'Helvetica Neue', Helvetica, Arial-Unicode, Arial, Sans-serif">from the Noun Project</text></svg>