<svg xmlns="http://www.w3.org/2000/svg" xmlns:xlink="http://www.w3.org/1999/xlink" version="1.1" x="0px" y="0px" viewBox="0 0 100 125" enable-background="new 0 0 100 100" xml:space="preserve"><g><path d="M87.987,75.751c-5.672,4.183-9.985,4.562-9.985,4.562l-8.198-11.114c18.688-13.784-9.42-30.126-9.42-30.126l-4.242,3.129   c-0.229-6.504-1.034-15.886-0.783-18.299c0.369-3.563,4.956-7.174,6.521-9.406c0.349-0.495,1.234-1.626,2.271-3.27   c-20.932-5.873-43.116,5.438-50.457,26.24c-5.288,14.982-1.493,30.963,8.508,41.934c0.043-0.038,0.088-0.077,0.131-0.116   c2.516-2.371,5.387-11.375,6.61-13.334c1.225-1.958,2.593-0.088,4.89-1.45c2.298-1.361,1.874-1.793,0.997-4.446   c-0.877-2.652-1.859-2.253-1.06-3.049c0.799-0.797,2.902,1.063,4.908,1.191c1.472,0.094,2.622-3.064,3.375-5.396   c0.621,2.507,8.109,30.885,25.892,17.768l8.198,11.114c0,0-1.637,4.011-7.215,8.125l0.596,0.81l9.184-6.772l0.67-0.495l9.208-6.793   L87.987,75.751z M43.059,45.283c1.631-2.134,5.547,1.873,5.547,1.873c0.316,0.776-1.633-1.115-2.342-0.705   C44.867,47.257,42.091,46.548,43.059,45.283z M42.714,50.785c0.338-0.884,1.438-1.029,2.867-0.793l-3.441,2.538   C42.374,51.799,42.567,51.17,42.714,50.785z M67.065,69.032c-16.064,11.85-23.132-15.813-23.132-15.813l3.688-2.721   c0.009,0.003,0.42,0.006,0.431,0.009L57,44.204c0-0.01,0-0.02,0-0.03l3.66-2.998c0,0,24.516,14.646,8.198,26.682L67.065,69.032z"/><path d="M56.186,49.54c0.166-0.361-0.033-2.225,0-3.319l-6.679,4.927c0.026,0.011,0.055,0.02,0.081,0.03   C52.661,52.33,55.163,51.775,56.186,49.54z"/><path d="M72.374,57H47.268c1.038,2,7.642,19.011,19.084,10.719l1.434-1.117C72.06,63.45,72.922,61,72.374,57z"/><path d="M68.755,30.7c-0.681-0.01-1.383-0.021-2.053-0.021c-4.754,0-6.654,3.737-6.996,5.712c-0.076,0.447,0.223,0.871,0.67,0.948   c0.048,0.008,0.094,0.012,0.14,0.012c0.392,0,0.738-0.282,0.808-0.682c0.031-0.177,0.804-4.351,5.379-4.351   c0.656,0,1.322,0.01,2.028,0.021c4.472,0.068,9.542,0.143,12.321-2.595c1.36-1.338,2.049-3.239,2.049-5.65   c0-0.453-0.367-0.82-0.82-0.82s-0.82,0.367-0.82,0.82c0,1.982-0.511,3.448-1.559,4.481C77.61,30.833,72.906,30.762,68.755,30.7z"/><path d="M58.071,30.101c-0.118,0.437,0.142,0.888,0.578,1.005c0.073,0.019,0.145,0.028,0.214,0.028   c0.362,0,0.693-0.241,0.793-0.607c0.418-1.557,0.993-2.846,3.8-2.846c3.845,0,9.108,0,10.743-4.08   c1.556-3.886,1.04-6.848,1.018-6.972c-0.08-0.445-0.508-0.741-0.953-0.659c-0.446,0.081-0.741,0.508-0.661,0.954   c0.006,0.026,0.455,2.616-0.927,6.067c-1.222,3.048-5.844,3.048-9.22,3.048C59.163,26.039,58.426,28.783,58.071,30.101z"/></g><text x="0" y="115" fill="#000000" font-size="5px" font-weight="bold" font-family="'Helvetica Neue', Helvetica, Arial-Unicode, Arial, Sans-serif">Created by Siwat Vatatiyaporn</text><text x="0" y="120" fill="#000000" font-size="5px" font-weight="bold" font-family="'Helvetica Neue', Helvetica, Arial-Unicode, Arial, Sans-serif">from the Noun Project</text></svg>