<svg xmlns="http://www.w3.org/2000/svg" xmlns:xlink="http://www.w3.org/1999/xlink" version="1.1" x="0px" y="0px" viewBox="0 0 100 125" enable-background="new 0 0 100 100" xml:space="preserve"><g><path d="M74.756,47.167c3.809-18.053-21.504-12.902-21.504-12.902l-3.745,17.748c0,0,21.08,14.913,24.87-3.049l10.735,2.265   c0,0,1.147,3.244,0.01,8.633l0.782,0.165l1.872-8.871l0.136-0.646l1.877-8.895l-0.782-0.165c-1.155,5.479-3.515,7.983-3.515,7.983   L74.756,47.167z M73.042,48.514c-3.273,15.519-22.081,2.835-22.081,2.835l3.327-15.769c0,0,22.404-4.364,19.078,11.397   L73.042,48.514z"/><path d="M53.007,50.944c2.091,1.108,16.57,8.202,18.98-2.765c0,0-4.847,2.537-11.229,1.017   C54.375,47.677,53.007,50.944,53.007,50.944z"/><path d="M50.517,59.084c-0.847-1.366,0.742-1.646,0.597-3.501s-0.545-1.722-2.473-1.989c-1.927-0.268-1.979,0.469-2.231-0.275   c-0.252-0.743,1.558-1.486,2.253-2.7s-2.568-3.914-3.391-4.8s0.693-2.608,2.358-4.174s1.333-3.448,0.251-4.774   s-13.406-5.889-15.519-7.215s-2.959-5.302-3.873-6.966c-0.289-0.527-1.049-2.134-2.404-4.012   c-8.833,6.349-14.585,16.712-14.585,28.42c0,16.705,11.711,30.673,27.371,34.147c4.486-3.11,11.085-5.174,13.958-6.256   c3.924-1.479,4.693-5.373,3.986-7.675C56.107,65.013,51.364,60.451,50.517,59.084z M26.98,37.878   c-0.116,0.214-0.327,0.374-0.587,0.415l-8.694,1.35c-0.354,0.055-0.701-0.129-0.854-0.452c-0.153-0.323-0.076-0.708,0.191-0.947   l7.555-6.762c0.332-0.298,0.842-0.269,1.14,0.063s0.27,0.843-0.063,1.139l-0.853,0.763c0.517,0.617,1.168,1.729,1.006,3.301   l0.324-0.05c0.441-0.069,0.853,0.233,0.921,0.673C27.096,37.552,27.062,37.728,26.98,37.878z M43.656,42.268   c0.075,1.121-1.222,2.637-1.715,1.644c-0.831-1.675,2.876-2.89,2.876-2.89C45.398,41.062,43.618,41.699,43.656,42.268z"/></g><text x="0" y="115" fill="#000000" font-size="5px" font-weight="bold" font-family="'Helvetica Neue', Helvetica, Arial-Unicode, Arial, Sans-serif">Created by Siwat Vatatiyaporn</text><text x="0" y="120" fill="#000000" font-size="5px" font-weight="bold" font-family="'Helvetica Neue', Helvetica, Arial-Unicode, Arial, Sans-serif">from the Noun Project</text></svg>